<?xml version="1.0" encoding="UTF-8"?>
<svg xmlns="http://www.w3.org/2000/svg" xmlns:xlink="http://www.w3.org/1999/xlink" width="1440pt" height="809.999993pt" viewBox="0 0 1440 809.999993" version="1.1">
<defs>
<clipPath id="clip1">
  <path d="M 871 618 L 896 618 L 896 642.882812 L 871 642.882812 Z M 871 618 "/>
</clipPath>
<clipPath id="clip2">
  <path d="M 830 618 L 855 618 L 855 642.882812 L 830 642.882812 Z M 830 618 "/>
</clipPath>
<clipPath id="clip3">
  <path d="M 871 167.382812 L 896 167.382812 L 896 192 L 871 192 Z M 871 167.382812 "/>
</clipPath>
<clipPath id="clip4">
  <path d="M 830 167.382812 L 855 167.382812 L 855 192 L 830 192 Z M 830 167.382812 "/>
</clipPath>
</defs>
<g id="surface1">
<rect x="0" y="0" width="1440" height="809.999993" style="fill:rgb(100%,100%,100%);fill-opacity:1;stroke:none;"/>
<rect x="0" y="0" width="1440" height="809.999993" style="fill:rgb(100%,100%,100%);fill-opacity:1;stroke:none;"/>
<rect x="0" y="0" width="1440" height="809.999993" style="fill:rgb(10.978699%,12.548828%,32.159424%);fill-opacity:1;stroke:none;"/>
<path style="fill:none;stroke-width:28;stroke-linecap:round;stroke-linejoin:round;stroke:rgb(9.408569%,9.408569%,12.939453%);stroke-opacity:1;stroke-miterlimit:10;" d="M 1938.171393 1983.830298 L 2311.754353 1983.830298 L 2311.754353 2173.139723 L 1938.171393 2173.139723 Z M 1938.171393 1983.830298 " transform="matrix(0.000000000000000013,0.219935,0.219734,-0.000000000000000013,252.945047,-62.447994)"/>
<path style="fill:none;stroke-width:28;stroke-linecap:round;stroke-linejoin:round;stroke:rgb(9.408569%,9.408569%,12.939453%);stroke-opacity:1;stroke-miterlimit:10;" d="M 2426.294456 2091.13349 L 2426.294456 2427.460376 L 2680.310977 2681.496594 L 3084.60255 2681.496594 " transform="matrix(0.000000000000000013,0.219935,0.219734,-0.000000000000000013,252.945047,-62.447994)"/>
<path style="fill:none;stroke-width:28;stroke-linecap:round;stroke-linejoin:round;stroke:rgb(9.408569%,9.408569%,12.939453%);stroke-opacity:1;stroke-miterlimit:10;" d="M 2311.754353 2091.13349 L 2755.421861 2091.13349 L 2755.421861 2456.099448 L 2962.975844 2456.099448 " transform="matrix(0.000000000000000013,0.219935,0.219734,-0.000000000000000013,252.945047,-62.447994)"/>
<path style="fill:none;stroke-width:28;stroke-linecap:round;stroke-linejoin:round;stroke:rgb(9.408569%,9.408569%,12.939453%);stroke-opacity:1;stroke-miterlimit:10;" d="M 2368.980002 2091.13349 L 2755.421861 1692.195298 L 2912.854559 1692.195298 " transform="matrix(0.000000000000000013,0.219935,0.219734,-0.000000000000000013,252.945047,-62.447994)"/>
<path style="fill:none;stroke-width:28;stroke-linecap:round;stroke-linejoin:round;stroke:rgb(9.408569%,9.408569%,12.939453%);stroke-opacity:1;stroke-miterlimit:10;" d="M 2573.514631 1880.011438 L 2573.514631 1404.186846 L 2877.101849 1404.186846 " transform="matrix(0.000000000000000013,0.219935,0.219734,-0.000000000000000013,252.945047,-62.447994)"/>
<path style="fill:none;stroke-width:28;stroke-linecap:round;stroke-linejoin:round;stroke:rgb(9.408569%,9.408569%,12.939453%);stroke-opacity:1;stroke-miterlimit:10;" d="M 2313.352835 1983.830298 L 2313.352835 1368.365784 L 2539.182794 1142.630872 " transform="matrix(0.000000000000000013,0.219935,0.219734,-0.000000000000000013,252.945047,-62.447994)"/>
<path style="fill:none;stroke-width:28;stroke-linecap:round;stroke-linejoin:round;stroke:rgb(9.408569%,9.408569%,12.939453%);stroke-opacity:1;stroke-miterlimit:10;" d="M 2311.754353 2173.139723 L 2311.754353 2899.142879 " transform="matrix(0.000000000000000013,0.219935,0.219734,-0.000000000000000013,252.945047,-62.447994)"/>
<path style="fill:none;stroke-width:28;stroke-linecap:round;stroke-linejoin:round;stroke:rgb(9.408569%,9.408569%,12.939453%);stroke-opacity:1;stroke-miterlimit:10;" d="M 2691.056327 1404.186846 L 2691.056327 1189.491577 L 2848.471264 1032.074452 " transform="matrix(0.000000000000000013,0.219935,0.219734,-0.000000000000000013,252.945047,-62.447994)"/>
<path style="fill:none;stroke-width:28;stroke-linecap:round;stroke-linejoin:round;stroke:rgb(9.408569%,9.408569%,12.939453%);stroke-opacity:1;stroke-miterlimit:10;" d="M 2725.317121 2681.496594 L 2915.074673 2871.30378 L 3084.60255 2871.30378 " transform="matrix(0.000000000000000013,0.219935,0.219734,-0.000000000000000013,252.945047,-62.447994)"/>
<path style="fill:none;stroke-width:28;stroke-linecap:round;stroke-linejoin:round;stroke:rgb(9.408569%,9.408569%,12.939453%);stroke-opacity:1;stroke-miterlimit:10;" d="M 2352.338031 2939.728231 C 2352.338031 2917.311179 2334.186382 2899.142879 2311.754353 2899.142879 C 2289.375608 2899.142879 2271.170676 2917.311179 2271.170676 2939.728231 C 2271.170676 2962.109729 2289.375608 2980.278029 2311.754353 2980.278029 C 2334.186382 2980.278029 2352.338031 2962.109729 2352.338031 2939.728231 Z M 2352.338031 2939.728231 " transform="matrix(0.000000000000000013,0.219935,0.219734,-0.000000000000000013,252.945047,-62.447994)"/>
<path style="fill:none;stroke-width:28;stroke-linecap:round;stroke-linejoin:round;stroke:rgb(9.408569%,9.408569%,12.939453%);stroke-opacity:1;stroke-miterlimit:10;" d="M 2810.320831 3252.78476 C 2810.320831 3230.367708 2792.151421 3212.199408 2769.772676 3212.199408 C 2747.340648 3212.199408 2729.171238 3230.367708 2729.171238 3252.78476 C 2729.171238 3275.201812 2747.340648 3293.370112 2769.772676 3293.370112 C 2792.151421 3293.370112 2810.320831 3275.201812 2810.320831 3252.78476 Z M 2810.320831 3252.78476 " transform="matrix(0.000000000000000013,0.219935,0.219734,-0.000000000000000013,252.945047,-62.447994)"/>
<g clip-path="url(#clip1)" clip-rule="nonzero">
<path style="fill:none;stroke-width:28;stroke-linecap:round;stroke-linejoin:round;stroke:rgb(9.408569%,9.408569%,12.939453%);stroke-opacity:1;stroke-miterlimit:10;" d="M 3193.157226 2871.143786 C 3193.157226 2848.726734 3175.005577 2830.558433 3152.573549 2830.558433 C 3130.194803 2830.558433 3111.989871 2848.726734 3111.989871 2871.143786 C 3111.989871 2893.560837 3130.194803 2911.729138 3152.573549 2911.729138 C 3175.005577 2911.729138 3193.157226 2893.560837 3193.157226 2871.143786 Z M 3193.157226 2871.143786 " transform="matrix(0.000000000000000013,0.219935,0.219734,-0.000000000000000013,252.945047,-62.447994)"/>
</g>
<g clip-path="url(#clip2)" clip-rule="nonzero">
<path style="fill:none;stroke-width:28;stroke-linecap:round;stroke-linejoin:round;stroke:rgb(9.408569%,9.408569%,12.939453%);stroke-opacity:1;stroke-miterlimit:10;" d="M 3193.157226 2681.496594 C 3193.157226 2659.061765 3175.005577 2640.946796 3152.573549 2640.946796 C 3130.194803 2640.946796 3111.989871 2659.061765 3111.989871 2681.496594 C 3111.989871 2703.913645 3130.194803 2722.081946 3152.573549 2722.081946 C 3175.005577 2722.081946 3193.157226 2703.913645 3193.157226 2681.496594 Z M 3193.157226 2681.496594 " transform="matrix(0.000000000000000013,0.219935,0.219734,-0.000000000000000013,252.945047,-62.447994)"/>
</g>
<path style="fill:none;stroke-width:28;stroke-linecap:round;stroke-linejoin:round;stroke:rgb(9.408569%,9.408569%,12.939453%);stroke-opacity:1;stroke-miterlimit:10;" d="M 3071.477238 2456.099448 C 3071.477238 2433.682397 3053.361111 2415.514096 3030.929082 2415.514096 C 3008.550337 2415.514096 2990.398688 2433.682397 2990.398688 2456.099448 C 2990.398688 2478.480946 3008.550337 2496.649246 3030.929082 2496.649246 C 3053.361111 2496.649246 3071.477238 2478.480946 3071.477238 2456.099448 Z M 3071.477238 2456.099448 " transform="matrix(0.000000000000000013,0.219935,0.219734,-0.000000000000000013,252.945047,-62.447994)"/>
<path style="fill:none;stroke-width:28;stroke-linecap:round;stroke-linejoin:round;stroke:rgb(9.408569%,9.408569%,12.939453%);stroke-opacity:1;stroke-miterlimit:10;" d="M 2974.733566 1404.186846 C 2974.733566 1381.769795 2956.564156 1363.601494 2934.132128 1363.601494 C 2911.753383 1363.601494 2893.601734 1381.769795 2893.601734 1404.186846 C 2893.601734 1426.568344 2911.753383 1444.736644 2934.132128 1444.736644 C 2956.564156 1444.736644 2974.733566 1426.568344 2974.733566 1404.186846 Z M 2974.733566 1404.186846 " transform="matrix(0.000000000000000013,0.219935,0.219734,-0.000000000000000013,252.945047,-62.447994)"/>
<path style="fill:none;stroke-width:28;stroke-linecap:round;stroke-linejoin:round;stroke:rgb(9.408569%,9.408569%,12.939453%);stroke-opacity:1;stroke-miterlimit:10;" d="M 2993.986392 1692.195298 C 2993.986392 1669.778246 2975.852504 1651.609945 2953.438236 1651.609945 C 2931.023969 1651.609945 2912.854559 1669.778246 2912.854559 1692.195298 C 2912.854559 1714.612349 2931.023969 1732.745095 2953.438236 1732.745095 C 2975.852504 1732.745095 2993.986392 1714.612349 2993.986392 1692.195298 Z M 2993.986392 1692.195298 " transform="matrix(0.000000000000000013,0.219935,0.219734,-0.000000000000000013,252.945047,-62.447994)"/>
<path style="fill:none;stroke-width:28;stroke-linecap:round;stroke-linejoin:round;stroke:rgb(9.408569%,9.408569%,12.939453%);stroke-opacity:1;stroke-miterlimit:10;" d="M 2923.635431 999.222183 C 2923.635431 976.805131 2905.466021 958.636831 2883.087276 958.636831 C 2860.655247 958.636831 2842.468077 976.805131 2842.468077 999.222183 C 2842.468077 1021.657012 2860.655247 1039.771981 2883.087276 1039.771981 C 2905.466021 1039.771981 2923.635431 1021.657012 2923.635431 999.222183 Z M 2923.635431 999.222183 " transform="matrix(0.000000000000000013,0.219935,0.219734,-0.000000000000000013,252.945047,-62.447994)"/>
<path style="fill:none;stroke-width:28;stroke-linecap:round;stroke-linejoin:round;stroke:rgb(9.408569%,9.408569%,12.939453%);stroke-opacity:1;stroke-miterlimit:10;" d="M 2604.578461 1102.04552 C 2604.578461 1079.610691 2586.444573 1061.460167 2563.977023 1061.460167 C 2541.598277 1061.460167 2523.48215 1079.610691 2523.48215 1102.04552 C 2523.48215 1124.462572 2541.598277 1142.630872 2563.977023 1142.630872 C 2586.444573 1142.630872 2604.578461 1124.462572 2604.578461 1102.04552 Z M 2604.578461 1102.04552 " transform="matrix(0.000000000000000013,0.219935,0.219734,-0.000000000000000013,252.945047,-62.447994)"/>
<path style="fill:none;stroke-width:28;stroke-linecap:round;stroke-linejoin:round;stroke:rgb(9.408569%,9.408569%,12.939453%);stroke-opacity:1;stroke-miterlimit:10;" d="M 2311.754353 2603.987993 L 2594.135046 2886.343293 L 2594.135046 3076.257143 L 2739.188391 3221.336889 " transform="matrix(0.000000000000000013,0.219935,0.219734,-0.000000000000000013,252.945047,-62.447994)"/>
<path style="fill:none;stroke-width:28;stroke-linecap:round;stroke-linejoin:round;stroke:rgb(9.408569%,9.408569%,12.939453%);stroke-opacity:1;stroke-miterlimit:10;" d="M 1825.744838 2091.13349 L 1825.744838 2427.460376 L 1571.710556 2681.496594 L 1167.418984 2681.496594 " transform="matrix(0.000000000000000013,0.219935,0.219734,-0.000000000000000013,252.945047,-62.447994)"/>
<path style="fill:none;stroke-width:28;stroke-linecap:round;stroke-linejoin:round;stroke:rgb(9.408569%,9.408569%,12.939453%);stroke-opacity:1;stroke-miterlimit:10;" d="M 1940.231658 2091.13349 L 1496.56415 2091.13349 L 1496.56415 2456.099448 L 1289.06345 2456.099448 " transform="matrix(0.000000000000000013,0.219935,0.219734,-0.000000000000000013,252.945047,-62.447994)"/>
<path style="fill:none;stroke-width:28;stroke-linecap:round;stroke-linejoin:round;stroke:rgb(9.408569%,9.408569%,12.939453%);stroke-opacity:1;stroke-miterlimit:10;" d="M 1883.006009 2091.13349 L 1496.56415 1692.195298 L 1339.149213 1692.195298 " transform="matrix(0.000000000000000013,0.219935,0.219734,-0.000000000000000013,252.945047,-62.447994)"/>
<path style="fill:none;stroke-width:28;stroke-linecap:round;stroke-linejoin:round;stroke:rgb(9.408569%,9.408569%,12.939453%);stroke-opacity:1;stroke-miterlimit:10;" d="M 1678.506902 1880.011438 L 1678.506902 1404.186846 L 1374.919684 1404.186846 " transform="matrix(0.000000000000000013,0.219935,0.219734,-0.000000000000000013,252.945047,-62.447994)"/>
<path style="fill:none;stroke-width:28;stroke-linecap:round;stroke-linejoin:round;stroke:rgb(9.408569%,9.408569%,12.939453%);stroke-opacity:1;stroke-miterlimit:10;" d="M 1938.633176 1983.830298 L 1938.633176 1368.365784 L 1712.8565 1142.630872 " transform="matrix(0.000000000000000013,0.219935,0.219734,-0.000000000000000013,252.945047,-62.447994)"/>
<path style="fill:none;stroke-width:28;stroke-linecap:round;stroke-linejoin:round;stroke:rgb(9.408569%,9.408569%,12.939453%);stroke-opacity:1;stroke-miterlimit:10;" d="M 1940.231658 2173.139723 L 1940.231658 2899.142879 " transform="matrix(0.000000000000000013,0.219935,0.219734,-0.000000000000000013,252.945047,-62.447994)"/>
<path style="fill:none;stroke-width:28;stroke-linecap:round;stroke-linejoin:round;stroke:rgb(9.408569%,9.408569%,12.939453%);stroke-opacity:1;stroke-miterlimit:10;" d="M 1560.982967 1404.186846 L 1560.982967 1189.491577 L 1403.550269 1032.074452 " transform="matrix(0.000000000000000013,0.219935,0.219734,-0.000000000000000013,252.945047,-62.447994)"/>
<path style="fill:none;stroke-width:28;stroke-linecap:round;stroke-linejoin:round;stroke:rgb(9.408569%,9.408569%,12.939453%);stroke-opacity:1;stroke-miterlimit:10;" d="M 1526.722174 2681.496594 L 1336.911339 2871.30378 L 1167.418984 2871.30378 " transform="matrix(0.000000000000000013,0.219935,0.219734,-0.000000000000000013,252.945047,-62.447994)"/>
<path style="fill:none;stroke-width:28;stroke-linecap:round;stroke-linejoin:round;stroke:rgb(9.408569%,9.408569%,12.939453%);stroke-opacity:1;stroke-miterlimit:10;" d="M 1899.683503 2939.728231 C 1899.683503 2917.311179 1917.852913 2899.142879 1940.231658 2899.142879 C 1962.663686 2899.142879 1980.815335 2917.311179 1980.815335 2939.728231 C 1980.815335 2962.109729 1962.663686 2980.278029 1940.231658 2980.278029 C 1917.852913 2980.278029 1899.683503 2962.109729 1899.683503 2939.728231 Z M 1899.683503 2939.728231 " transform="matrix(0.000000000000000013,0.219935,0.219734,-0.000000000000000013,252.945047,-62.447994)"/>
<path style="fill:none;stroke-width:28;stroke-linecap:round;stroke-linejoin:round;stroke:rgb(9.408569%,9.408569%,12.939453%);stroke-opacity:1;stroke-miterlimit:10;" d="M 1441.718463 3252.78476 C 1441.718463 3230.367708 1459.852351 3212.199408 1482.266618 3212.199408 C 1504.680886 3212.199408 1522.814774 3230.367708 1522.814774 3252.78476 C 1522.814774 3275.201812 1504.680886 3293.370112 1482.266618 3293.370112 C 1459.852351 3293.370112 1441.718463 3275.201812 1441.718463 3252.78476 Z M 1441.718463 3252.78476 " transform="matrix(0.000000000000000013,0.219935,0.219734,-0.000000000000000013,252.945047,-62.447994)"/>
<g clip-path="url(#clip3)" clip-rule="nonzero">
<path style="fill:none;stroke-width:28;stroke-linecap:round;stroke-linejoin:round;stroke:rgb(9.408569%,9.408569%,12.939453%);stroke-opacity:1;stroke-miterlimit:10;" d="M 1058.864308 2871.143786 C 1058.864308 2848.726734 1077.033718 2830.558433 1099.412463 2830.558433 C 1121.844491 2830.558433 1139.99614 2848.726734 1139.99614 2871.143786 C 1139.99614 2893.560837 1121.844491 2911.729138 1099.412463 2911.729138 C 1077.033718 2911.729138 1058.864308 2893.560837 1058.864308 2871.143786 Z M 1058.864308 2871.143786 " transform="matrix(0.000000000000000013,0.219935,0.219734,-0.000000000000000013,252.945047,-62.447994)"/>
</g>
<g clip-path="url(#clip4)" clip-rule="nonzero">
<path style="fill:none;stroke-width:28;stroke-linecap:round;stroke-linejoin:round;stroke:rgb(9.408569%,9.408569%,12.939453%);stroke-opacity:1;stroke-miterlimit:10;" d="M 1058.864308 2681.496594 C 1058.864308 2659.061765 1077.033718 2640.946796 1099.412463 2640.946796 C 1121.844491 2640.946796 1139.99614 2659.061765 1139.99614 2681.496594 C 1139.99614 2703.913645 1121.844491 2722.081946 1099.412463 2722.081946 C 1077.033718 2722.081946 1058.864308 2703.913645 1058.864308 2681.496594 Z M 1058.864308 2681.496594 " transform="matrix(0.000000000000000013,0.219935,0.219734,-0.000000000000000013,252.945047,-62.447994)"/>
</g>
<path style="fill:none;stroke-width:28;stroke-linecap:round;stroke-linejoin:round;stroke:rgb(9.408569%,9.408569%,12.939453%);stroke-opacity:1;stroke-miterlimit:10;" d="M 1180.508774 2456.099448 C 1180.508774 2433.682397 1198.678184 2415.514096 1221.056929 2415.514096 C 1243.471196 2415.514096 1261.640606 2433.682397 1261.640606 2456.099448 C 1261.640606 2478.480946 1243.471196 2496.649246 1221.056929 2496.649246 C 1198.678184 2496.649246 1180.508774 2478.480946 1180.508774 2456.099448 Z M 1180.508774 2456.099448 " transform="matrix(0.000000000000000013,0.219935,0.219734,-0.000000000000000013,252.945047,-62.447994)"/>
<path style="fill:none;stroke-width:28;stroke-linecap:round;stroke-linejoin:round;stroke:rgb(9.408569%,9.408569%,12.939453%);stroke-opacity:1;stroke-miterlimit:10;" d="M 1277.270206 1404.186846 C 1277.270206 1381.769795 1295.475138 1363.601494 1317.853883 1363.601494 C 1340.268151 1363.601494 1358.43756 1381.769795 1358.43756 1404.186846 C 1358.43756 1426.568344 1340.268151 1444.736644 1317.853883 1444.736644 C 1295.475138 1444.736644 1277.270206 1426.568344 1277.270206 1404.186846 Z M 1277.270206 1404.186846 " transform="matrix(0.000000000000000013,0.219935,0.219734,-0.000000000000000013,252.945047,-62.447994)"/>
<path style="fill:none;stroke-width:28;stroke-linecap:round;stroke-linejoin:round;stroke:rgb(9.408569%,9.408569%,12.939453%);stroke-opacity:1;stroke-miterlimit:10;" d="M 1257.99962 1692.195298 C 1257.99962 1669.778246 1276.16903 1651.609945 1298.601058 1651.609945 C 1320.979803 1651.609945 1339.149213 1669.778246 1339.149213 1692.195298 C 1339.149213 1714.612349 1320.979803 1732.745095 1298.601058 1732.745095 C 1276.16903 1732.745095 1257.99962 1714.612349 1257.99962 1692.195298 Z M 1257.99962 1692.195298 " transform="matrix(0.000000000000000013,0.219935,0.219734,-0.000000000000000013,252.945047,-62.447994)"/>
<path style="fill:none;stroke-width:28;stroke-linecap:round;stroke-linejoin:round;stroke:rgb(9.408569%,9.408569%,12.939453%);stroke-opacity:1;stroke-miterlimit:10;" d="M 1328.403863 999.222183 C 1328.403863 976.805131 1346.555512 958.636831 1368.952019 958.636831 C 1391.366286 958.636831 1409.535696 976.805131 1409.535696 999.222183 C 1409.535696 1021.657012 1391.366286 1039.771981 1368.952019 1039.771981 C 1346.555512 1039.771981 1328.403863 1021.657012 1328.403863 999.222183 Z M 1328.403863 999.222183 " transform="matrix(0.000000000000000013,0.219935,0.219734,-0.000000000000000013,252.945047,-62.447994)"/>
<path style="fill:none;stroke-width:28;stroke-linecap:round;stroke-linejoin:round;stroke:rgb(9.408569%,9.408569%,12.939453%);stroke-opacity:1;stroke-miterlimit:10;" d="M 1647.425312 1102.04552 C 1647.425312 1079.610691 1665.630243 1061.460167 1688.008989 1061.460167 C 1710.387734 1061.460167 1728.557144 1079.610691 1728.557144 1102.04552 C 1728.557144 1124.462572 1710.387734 1142.630872 1688.008989 1142.630872 C 1665.630243 1142.630872 1647.425312 1124.462572 1647.425312 1102.04552 Z M 1647.425312 1102.04552 " transform="matrix(0.000000000000000013,0.219935,0.219734,-0.000000000000000013,252.945047,-62.447994)"/>
<path style="fill:none;stroke-width:28;stroke-linecap:round;stroke-linejoin:round;stroke:rgb(9.408569%,9.408569%,12.939453%);stroke-opacity:1;stroke-miterlimit:10;" d="M 1940.231658 2603.987993 L 1657.850965 2886.343293 L 1657.850965 3076.257143 L 1512.815382 3221.336889 " transform="matrix(0.000000000000000013,0.219935,0.219734,-0.000000000000000013,252.945047,-62.447994)"/>
<path style="fill-rule:nonzero;fill:rgb(44.709778%,44.709778%,44.709778%);fill-opacity:1;stroke-width:28;stroke-linecap:round;stroke-linejoin:round;stroke:rgb(9.408569%,9.408569%,12.939453%);stroke-opacity:1;stroke-miterlimit:10;" d="M 1913.750143 848.915939 L 2794.726753 2263.679013 L 2242.149351 2263.679013 L 2567.742336 3403.091004 L 1457.259258 1957.111163 L 2250.159521 1957.111163 L 1913.750143 848.915939 " transform="matrix(0.000000000000000013,0.219935,0.219734,-0.000000000000000013,252.945047,-62.447994)"/>
<path style="fill:none;stroke-width:28;stroke-linecap:round;stroke-linejoin:round;stroke:rgb(9.408569%,9.408569%,12.939453%);stroke-opacity:1;stroke-miterlimit:10;" d="M 1712.8565 2033.766458 L 2196.716946 2033.766458 " transform="matrix(0.000000000000000013,0.219935,0.219734,-0.000000000000000013,252.945047,-62.447994)"/>
<path style=" stroke:none;fill-rule:nonzero;fill:rgb(94.898987%,56.079102%,19.219971%);fill-opacity:1;" d="M 699.832031 437.0625 C 697.375 437.0625 695.382812 435.078125 695.382812 432.621094 C 695.382812 430.164062 697.375 428.171875 699.832031 428.171875 C 702.285156 428.171875 704.277344 430.164062 704.277344 432.621094 C 704.277344 435.078125 702.285156 437.0625 699.832031 437.0625 "/>
</g>
</svg>
