<?xml version="1.0" encoding="UTF-8"?>
<svg xmlns="http://www.w3.org/2000/svg" xmlns:xlink="http://www.w3.org/1999/xlink" width="900pt" height="470.999988pt" viewBox="0 0 900 470.999988" version="1.1">
<defs>
<filter id="alpha" filterUnits="objectBoundingBox" x="0%" y="0%" width="100%" height="100%">
  <feColorMatrix type="matrix" in="SourceGraphic" values="0 0 0 0 1 0 0 0 0 1 0 0 0 0 1 0 0 0 1 0"/>
</filter>
<mask id="mask0">
  <g filter="url(#alpha)">
<rect x="0" y="0" width="900" height="470.999988" style="fill:rgb(0%,0%,0%);fill-opacity:0.0392;stroke:none;"/>
  </g>
</mask>
<clipPath id="clip1">
  <rect width="900" height="471"/>
</clipPath>
<g id="surface4" clip-path="url(#clip1)">
<path style=" stroke:none;fill-rule:nonzero;fill:rgb(100%,56.858826%,30.198669%);fill-opacity:1;" d="M 801.375 96.21875 L 693.085938 202.601563 L 575.917969 96.21875 L 459.613281 201.777344 L 459.613281 238.855469 L 577.6875 133.300781 L 693.074219 239.683594 L 799.597656 133.300781 L 904.207031 237.851563 L 904.207031 200.769531 Z M 801.375 96.21875 "/>
<path style=" stroke:none;fill-rule:nonzero;fill:rgb(100%,56.858826%,30.198669%);fill-opacity:1;" d="M 916.480469 263.980469 L 800.132813 147.863281 L 693.808594 253.902344 L 578.582031 147.09375 L 450.066406 262.964844 L 450.066406 198.550781 L 577.023438 82.417969 L 693.054688 188.503906 L 801.929688 81.664063 L 916.480469 197.800781 Z M 578.152344 119.507813 L 692.910156 225.460938 L 799.34375 118.738281 L 891.933594 211.722656 L 891.933594 203.742188 L 800.878906 110.777344 L 693.230469 216.695313 L 576.171875 110.019531 L 471.886719 205 L 471.886719 214.746094 Z M 578.152344 119.507813 "/>
<path style=" stroke:none;fill-rule:nonzero;fill:rgb(100%,56.858826%,30.198669%);fill-opacity:1;" d="M 801.375 -29.257813 L 693.085938 77.121094 L 575.917969 -29.257813 L 459.613281 76.296875 L 459.613281 113.378906 L 577.6875 7.824219 L 693.074219 114.203125 L 799.597656 7.824219 L 904.207031 112.371094 L 904.207031 75.292969 Z M 801.375 -29.257813 "/>
<path style=" stroke:none;fill-rule:nonzero;fill:rgb(100%,56.858826%,30.198669%);fill-opacity:1;" d="M 916.480469 138.5 L 800.132813 22.386719 L 693.808594 128.425781 L 578.582031 21.617188 L 450.066406 137.484375 L 450.066406 73.074219 L 577.023438 -43.058594 L 693.054688 63.027344 L 801.929688 -43.816406 L 916.480469 72.320313 Z M 578.152344 -5.972656 L 692.910156 99.984375 L 799.34375 -6.742188 L 891.933594 86.246094 L 891.933594 78.261719 L 800.878906 -14.699219 L 693.230469 91.21875 L 576.171875 -15.457031 L 471.886719 79.523438 L 471.886719 89.269531 Z M 578.152344 -5.972656 "/>
<path style=" stroke:none;fill-rule:nonzero;fill:rgb(100%,56.858826%,30.198669%);fill-opacity:1;" d="M 801.375 347.175781 L 693.085938 453.558594 L 575.917969 347.175781 L 459.613281 452.734375 L 459.613281 489.8125 L 577.6875 384.257813 L 693.074219 490.640625 L 799.597656 384.257813 L 904.207031 488.808594 L 904.207031 451.726563 Z M 801.375 347.175781 "/>
<path style=" stroke:none;fill-rule:nonzero;fill:rgb(100%,56.858826%,30.198669%);fill-opacity:1;" d="M 916.480469 514.933594 L 800.132813 398.820313 L 693.808594 504.859375 L 578.582031 398.050781 L 450.066406 513.921875 L 450.066406 449.507813 L 577.023438 333.375 L 693.054688 439.460938 L 801.929688 332.621094 L 916.480469 448.753906 Z M 578.152344 370.464844 L 692.910156 476.417969 L 799.34375 369.691406 L 891.933594 462.679688 L 891.933594 454.699219 L 800.878906 361.734375 L 693.230469 467.652344 L 576.171875 360.976563 L 471.886719 455.957031 L 471.886719 465.703125 Z M 578.152344 370.464844 "/>
<path style=" stroke:none;fill-rule:nonzero;fill:rgb(100%,56.858826%,30.198669%);fill-opacity:1;" d="M 801.375 221.699219 L 693.085938 328.078125 L 575.917969 221.695313 L 459.613281 327.253906 L 459.613281 364.335938 L 577.6875 258.777344 L 693.074219 365.160156 L 799.597656 258.777344 L 904.207031 363.328125 L 904.207031 326.25 Z M 801.375 221.699219 "/>
<path style=" stroke:none;fill-rule:nonzero;fill:rgb(100%,56.858826%,30.198669%);fill-opacity:1;" d="M 916.480469 389.457031 L 800.132813 273.34375 L 693.808594 379.382813 L 578.582031 272.574219 L 450.066406 388.441406 L 450.066406 324.03125 L 577.023438 207.894531 L 693.054688 313.984375 L 801.929688 207.140625 L 916.480469 323.277344 Z M 578.152344 244.984375 L 692.910156 350.941406 L 799.34375 244.214844 L 891.933594 337.199219 L 891.933594 329.21875 L 800.878906 236.253906 L 693.230469 342.175781 L 576.171875 235.5 L 471.886719 330.476563 L 471.886719 340.226563 Z M 578.152344 244.984375 "/>
<path style=" stroke:none;fill-rule:nonzero;fill:rgb(100%,56.858826%,30.198669%);fill-opacity:1;" d="M 98.753906 96.21875 L 207.046875 202.601563 L 324.214844 96.21875 L 440.519531 201.777344 L 440.519531 238.855469 L 322.445313 133.300781 L 207.054688 239.683594 L 100.535156 133.300781 L -4.074219 237.851563 L -4.074219 200.769531 Z M 98.753906 96.21875 "/>
<path style=" stroke:none;fill-rule:nonzero;fill:rgb(100%,56.858826%,30.198669%);fill-opacity:1;" d="M -16.347656 197.800781 L 98.203125 81.664063 L 207.078125 188.503906 L 323.109375 82.417969 L 450.066406 198.554688 L 450.066406 262.964844 L 321.546875 147.097656 L 206.324219 253.90625 L 100 147.867188 L -16.347656 263.980469 Z M 428.246094 214.75 L 428.246094 205.003906 L 323.957031 110.023438 L 206.898438 216.699219 L 99.25 110.78125 L 8.199219 203.742188 L 8.199219 211.722656 L 100.789063 118.734375 L 207.222656 225.460938 L 321.980469 119.507813 Z M 428.246094 214.75 "/>
<path style=" stroke:none;fill-rule:nonzero;fill:rgb(100%,56.858826%,30.198669%);fill-opacity:1;" d="M 98.753906 -29.257813 L 207.046875 77.121094 L 324.214844 -29.257813 L 440.519531 76.296875 L 440.519531 113.378906 L 322.445313 7.824219 L 207.054688 114.203125 L 100.535156 7.824219 L -4.074219 112.371094 L -4.074219 75.292969 Z M 98.753906 -29.257813 "/>
<path style=" stroke:none;fill-rule:nonzero;fill:rgb(100%,56.858826%,30.198669%);fill-opacity:1;" d="M -16.347656 72.320313 L 98.203125 -43.816406 L 207.078125 63.027344 L 323.109375 -43.058594 L 450.066406 73.074219 L 450.066406 137.488281 L 321.546875 21.617188 L 206.324219 128.425781 L 100 22.386719 L -16.347656 138.5 Z M 428.246094 89.269531 L 428.246094 79.523438 L 323.957031 -15.457031 L 206.898438 91.21875 L 99.25 -14.699219 L 8.199219 78.261719 L 8.199219 86.246094 L 100.789063 -6.742188 L 207.222656 99.980469 L 321.980469 -5.972656 Z M 428.246094 89.269531 "/>
<path style=" stroke:none;fill-rule:nonzero;fill:rgb(100%,56.858826%,30.198669%);fill-opacity:1;" d="M 98.753906 347.175781 L 207.046875 453.558594 L 324.214844 347.175781 L 440.519531 452.734375 L 440.519531 489.8125 L 322.445313 384.257813 L 207.054688 490.640625 L 100.535156 384.257813 L -4.074219 488.808594 L -4.074219 451.726563 Z M 98.753906 347.175781 "/>
<path style=" stroke:none;fill-rule:nonzero;fill:rgb(100%,56.858826%,30.198669%);fill-opacity:1;" d="M -16.347656 448.753906 L 98.203125 332.621094 L 207.078125 439.460938 L 323.109375 333.375 L 450.066406 449.507813 L 450.066406 513.921875 L 321.546875 398.050781 L 206.324219 504.863281 L 100 398.820313 L -16.347656 514.933594 Z M 428.246094 465.707031 L 428.246094 455.960938 L 323.957031 360.976563 L 206.898438 467.65625 L 99.25 361.734375 L 8.199219 454.699219 L 8.199219 462.679688 L 100.789063 369.691406 L 207.222656 476.417969 L 321.980469 370.460938 Z M 428.246094 465.707031 "/>
<path style=" stroke:none;fill-rule:nonzero;fill:rgb(100%,56.858826%,30.198669%);fill-opacity:1;" d="M 98.753906 221.699219 L 207.046875 328.078125 L 324.214844 221.695313 L 440.519531 327.253906 L 440.519531 364.335938 L 322.445313 258.777344 L 207.054688 365.160156 L 100.535156 258.777344 L -4.074219 363.328125 L -4.074219 326.25 Z M 98.753906 221.699219 "/>
<path style=" stroke:none;fill-rule:nonzero;fill:rgb(100%,56.858826%,30.198669%);fill-opacity:1;" d="M -16.347656 323.277344 L 98.203125 207.140625 L 207.078125 313.984375 L 323.109375 207.894531 L 450.066406 324.03125 L 450.066406 388.445313 L 321.546875 272.574219 L 206.324219 379.382813 L 100 273.34375 L -16.347656 389.457031 Z M 428.246094 340.226563 L 428.246094 330.480469 L 323.957031 235.5 L 206.898438 342.175781 L 99.25 236.257813 L 8.199219 329.21875 L 8.199219 337.199219 L 100.789063 244.214844 L 207.222656 350.9375 L 321.980469 244.984375 Z M 428.246094 340.226563 "/>
</g>
</defs>
<g id="surface1">
<rect x="0" y="0" width="900" height="470.999988" style="fill:rgb(100%,100%,100%);fill-opacity:1;stroke:none;"/>
<rect x="0" y="0" width="900" height="470.999988" style="fill:rgb(100%,100%,100%);fill-opacity:1;stroke:none;"/>
<rect x="0" y="0" width="900" height="470.999988" style="fill:rgb(26.669312%,26.669312%,25.099182%);fill-opacity:1;stroke:none;"/>
<use xlink:href="#surface4" transform="matrix(1,0,0,1,0,0.000000000000015401)" mask="url(#mask0)"/>
</g>
</svg>
